<svg xmlns="http://www.w3.org/2000/svg" width="28.74" height="28.74" viewBox="0 0 28.74 28.74"><defs><style>.a,.b{fill:#ed1c24;stroke:#ed1c24;stroke-width:0.5px;}.a{fill-rule:evenodd;}</style></defs><g transform="translate(0.25 0.25)"><path class="a" d="M2.23,289.2a1.574,1.574,0,0,0-1.568,1.568v25.105a1.575,1.575,0,0,0,1.568,1.568H16.871v-1.043H2.23a.519.519,0,0,1-.525-.525V290.763a.519.519,0,0,1,.525-.525H20.014a.519.519,0,0,1,.525.525v5.753h1.043v-5.753a1.575,1.575,0,0,0-1.568-1.568Z" transform="translate(-0.662 -289.195)"/><path class="a" d="M6.595,291.31a1.581,1.581,0,0,0-1.568,1.575V309.62a1.575,1.575,0,0,0,1.568,1.568h7.846a1.574,1.574,0,0,0,1.568-1.568V292.886a1.581,1.581,0,0,0-1.568-1.575Zm0,1.05h7.846a.519.519,0,0,1,.525.525V309.62a.519.519,0,0,1-.525.525H6.595a.519.519,0,0,1-.525-.525V292.886A.519.519,0,0,1,6.595,292.361Z" transform="translate(12.231 -282.947)"/><path class="b" d="M7.33,296.068a.523.523,0,1,1-.523-.523.523.523,0,0,1,.523.523Z" transform="translate(15.943 -270.44)"/><path class="b" d="M4.478,295.016a1.568,1.568,0,1,0,1.568,1.568A1.575,1.575,0,0,0,4.478,295.016Zm0,1.043a.525.525,0,0,1,0,1.05.525.525,0,0,1,0-1.05Z" transform="translate(5.979 -272.003)"/><path class="a" d="M3.243,289.726a.523.523,0,0,0,.054,1.043H6.942a.523.523,0,1,0,0-1.042h-3.7Z" transform="translate(5.599 -287.633)"/><path class="a" d="M6.611,291.84a.525.525,0,1,0,0,1.05h1.56a.525.525,0,1,0,0-1.05Z" transform="translate(15.358 -281.384)"/></g></svg>