<svg xmlns="http://www.w3.org/2000/svg" width="31.132" height="21.455" viewBox="0 0 31.132 21.455"><defs><style>.a{fill:#ed1c24;}</style></defs><path class="a" d="M31.881,17.956H5.659A2.458,2.458,0,0,0,3.2,20.411V36.956a2.458,2.458,0,0,0,2.455,2.455H31.881a2.458,2.458,0,0,0,2.455-2.455V20.411A2.458,2.458,0,0,0,31.881,17.956Zm1.29,2.455V25.5c-2.712,0-14.006,0-14.115,0a.158.158,0,0,1-.164-.1,6.028,6.028,0,0,1-.552-1.546c-.038-.182-.111-.283-.3-.281a3.444,3.444,0,0,0-.792.085,5.96,5.96,0,0,0-2.067,1.06c-.3.223-.583.473-.876.708a1.523,1.523,0,0,1-.168.1V19.121H31.881A1.292,1.292,0,0,1,33.171,20.411ZM5.659,19.121h6.284v6.208a1.507,1.507,0,0,1-.265-.094c-.15-.089-.291-.191-.432-.292A7.837,7.837,0,0,0,8.463,23.88a1.239,1.239,0,0,0-.224-.029c-.408-.022-.542.05-.681.431-.115.317-.158.788-.26,1.11-.013.041-.063.1-.1.1-.2,0-1.933,0-2.833,0V20.411A1.292,1.292,0,0,1,5.659,19.121ZM4.369,36.956V27.685H8.851c-.1.1-.172.191-.254.272-.3.295-.441.436-.741.726a.368.368,0,0,0-.092.35,20.07,20.07,0,0,1,.081,2.93c0,.168-.014.336-.023.535a.409.409,0,0,0,.106-.062c.175-.213.329-.446.523-.639.665-.663,1.353-1.3,2.016-1.969.477-.479.93-.982,1.394-1.475l.084-.089v9.981H5.659A1.291,1.291,0,0,1,4.369,36.956Zm27.512,1.291H14.143V27.909c.46.536.895,1.067,1.357,1.573.434.475.908.913,1.345,1.386s1.127,1.275,1.555,1.767l.091.1c.011-.061.022-.1.024-.136.084-1.091.166-2.183.254-3.273a.327.327,0,0,0-.091-.282c-.33-.32-.927-.932-1.259-1.251-.034-.032-.07-.061-.125-.108H33.171v9.267A1.293,1.293,0,0,1,31.881,38.246Z" transform="translate(-3.204 -17.956)"/></svg>