<svg xmlns="http://www.w3.org/2000/svg" width="23.416" height="32.211" viewBox="0 0 23.416 32.211"><defs><style>.a,.c{fill:none;stroke-linecap:round;stroke-linejoin:round;stroke-miterlimit:10;}.a,.b,.c{stroke:#ed1c24;}.b{fill:#ed1c24;stroke-width:0.6px;}.c{stroke-width:1.5px;}</style></defs><g transform="translate(0.3 0.3)"><ellipse class="a" cx="4.486" cy="1.57" rx="4.486" ry="1.57" transform="translate(13.643 14.421)"/><path class="a" d="M13.3,33.237v2.43h0c0,.9,2.019,1.608,4.486,1.608s4.486-.71,4.486-1.608h0V33.2" transform="translate(0.344 -17.248)"/><path class="a" d="M25.273,40.145v2.43h0c0,.9-2.019,1.608-4.486,1.608s-4.486-.71-4.486-1.608V39.5" transform="translate(-2.656 -21.512)"/><path class="b" d="M92.768,35H81.326A3.324,3.324,0,0,0,78,38.29V63.321a3.324,3.324,0,0,0,3.326,3.29H92.768a3.263,3.263,0,0,0,3.254-3.29V58.744h-.858V60.6H78.858V40.149H94.842a.429.429,0,1,0,0-.858H78.858v-1a2.465,2.465,0,0,1,2.467-2.432H92.768a2.4,2.4,0,0,1,2.4,2.432v1H94.2a.429.429,0,1,0,0,.858h.965v3h.858V38.29A3.263,3.263,0,0,0,92.768,35Zm2.4,26.461v1.859a2.4,2.4,0,0,1-2.4,2.432H81.326a2.465,2.465,0,0,1-2.467-2.432V61.461Z" transform="translate(-78 -35)"/><path class="c" d="M54.1,8.62l.023-6.12,2.434,2.412" transform="translate(-35.999 4.367)"/><line class="c" y1="2.434" x2="2.503" transform="translate(15.62 6.867)"/></g></svg>